<?xml version="1.0" encoding="UTF-8" standalone="no"?>
<!DOCTYPE svg PUBLIC "-//W3C//DTD SVG 20010904//EN"
              "http://www.w3.org/TR/2001/REC-SVG-20010904/DTD/svg10.dtd">

<svg xmlns="http://www.w3.org/2000/svg"
     width="10.7778in" height="2.625in"
     viewBox="0 0 776 189">
  <path id="Selection"
        fill="black" stroke="black" stroke-width="1"
        d="M 136.00,14.00
           C 118.96,18.60 96.60,33.73 83.00,44.92
             71.07,54.74 60.83,61.18 45.00,61.00
             38.27,60.92 33.69,59.14 28.00,55.53
             25.16,53.73 22.23,51.79 23.42,48.00
             25.15,42.50 36.43,30.39 41.00,26.61
             62.07,9.25 79.30,4.69 106.00,5.00
             113.29,5.09 131.89,7.82 136.00,14.00 Z
           M 370.01,117.00
           C 376.64,114.79 390.46,109.46 397.00,110.11
             403.80,110.79 407.65,117.75 404.99,123.91
             402.97,128.61 395.44,132.47 391.00,134.82
             378.44,141.18 360.25,148.99 349.51,134.82
             346.96,131.56 346.78,126.15 346.10,122.00
             346.10,122.00 346.10,112.00 346.10,112.00
             346.10,112.00 345.00,88.00 345.00,88.00
             345.00,88.00 345.83,79.00 345.83,79.00
             346.88,68.18 347.73,49.65 358.04,43.36
             364.19,39.61 387.66,34.37 395.00,34.47
             400.47,34.54 404.90,38.49 405.34,44.00
             405.81,49.86 401.59,53.13 397.00,55.69
             397.00,55.69 373.30,66.97 373.30,66.97
             369.97,69.74 369.55,76.85 369.00,81.00
             375.36,77.70 383.70,74.33 391.00,75.11
             398.27,75.88 400.92,82.97 397.69,88.96
             394.67,94.54 384.81,98.19 379.00,100.31
             376.00,101.40 371.77,102.33 370.01,105.22
             368.18,108.28 369.20,113.72 370.01,117.00 Z
           M 654.16,117.00
           C 660.81,114.73 675.24,109.32 682.00,110.14
             688.27,110.89 691.87,117.14 689.82,123.00
             687.77,128.85 681.15,131.66 676.00,134.25
             665.07,139.72 653.06,146.64 641.00,140.37
             638.58,139.11 635.33,137.06 633.74,134.82
             631.29,131.37 630.06,114.78 630.00,110.00
             629.80,92.87 628.83,67.72 635.46,52.00
             636.59,49.34 638.10,46.54 640.33,44.65
             645.46,40.30 665.79,36.16 673.00,35.13
             680.03,34.12 688.34,33.60 689.76,43.00
             691.07,51.70 682.27,55.11 676.00,58.25
             672.02,60.24 658.60,65.63 656.59,68.22
             654.40,71.05 654.08,77.46 654.00,81.00
             660.24,77.54 668.73,74.18 676.00,75.13
             682.95,76.04 685.62,83.28 682.15,88.98
             678.74,94.59 669.01,98.30 663.00,100.58
             660.16,101.65 655.94,102.55 654.16,105.27
             652.56,108.22 653.84,113.55 654.16,117.00 Z
           M 448.00,35.44
           C 465.17,33.62 473.82,50.00 474.00,65.00
             474.05,69.59 474.43,75.86 472.43,80.00
             469.37,86.33 461.03,89.57 455.28,84.49
             449.66,79.53 453.90,68.21 448.69,64.92
             444.92,62.55 440.81,67.18 438.97,70.00
             434.44,76.95 433.04,90.71 432.51,99.00
             431.99,107.25 433.65,122.21 444.00,123.57
             451.73,124.59 471.74,112.23 472.83,127.00
             473.59,137.27 460.82,145.60 452.00,147.48
             449.14,148.10 445.93,148.03 443.00,148.00
             419.49,147.72 410.03,121.90 410.00,102.00
             410.00,102.00 410.00,95.00 410.00,95.00
             410.03,76.13 419.21,49.60 436.00,39.48
             440.20,36.95 443.30,36.31 448.00,35.44 Z
           M 591.00,111.00
           C 588.20,112.12 582.64,113.88 581.02,116.39
             579.68,118.47 580.08,122.48 579.83,125.00
             579.38,129.61 577.83,138.04 575.59,141.98
             572.77,146.92 566.78,148.93 562.39,144.69
             559.63,142.01 558.57,137.65 557.92,134.00
             557.04,129.00 557.01,128.02 557.00,123.00
             557.00,123.00 557.00,62.00 557.00,62.00
             557.01,57.69 556.94,51.90 559.72,48.33
             562.07,45.32 568.41,42.44 572.00,41.06
             582.88,36.90 596.78,32.87 608.00,37.90
             621.36,43.90 624.15,56.81 624.00,70.00
             623.90,78.36 621.76,83.20 616.96,90.00
             615.50,92.06 610.01,97.84 609.69,99.42
             609.28,101.46 613.19,107.82 614.22,110.00
             617.02,115.91 620.70,126.52 620.96,133.00
             621.55,147.65 611.43,149.64 605.52,143.66
             600.70,138.78 592.93,118.14 591.00,111.00 Z
           M 515.00,37.71
           C 533.55,38.17 541.67,51.24 545.20,68.00
             546.86,75.91 548.01,83.91 548.00,92.00
             547.97,115.53 540.06,146.69 511.00,145.99
             495.14,145.60 486.33,131.84 482.43,118.00
             480.83,112.33 480.15,106.86 480.08,101.00
             480.08,101.00 480.08,83.00 480.08,83.00
             481.70,67.24 489.17,45.93 505.00,39.48
             508.29,38.14 511.50,37.91 515.00,37.71 Z
           M 311.00,92.00
           C 313.41,78.56 314.04,65.04 318.70,52.00
             320.21,47.75 323.17,40.56 328.04,39.47
             338.08,37.24 338.99,53.67 339.00,60.00
             339.02,75.09 334.89,97.01 331.58,112.00
             329.85,119.82 327.55,128.78 324.11,136.00
             322.55,139.28 320.12,143.51 315.99,143.63
             310.93,143.77 307.71,137.87 305.76,134.00
             301.59,125.73 296.76,109.24 296.00,100.00
             292.74,103.78 291.96,108.35 290.31,113.00
             288.18,118.99 284.73,127.51 281.69,133.00
             279.51,136.93 276.01,142.53 271.00,142.75
             260.97,143.19 257.58,123.43 256.42,116.00
             253.61,97.87 252.91,79.33 253.00,61.00
             253.02,56.27 253.57,49.23 255.84,45.05
             259.62,38.08 265.76,39.70 269.18,46.02
             273.01,53.10 274.99,68.83 275.00,77.00
             275.01,81.51 274.73,83.54 276.00,88.00
             277.61,80.01 283.52,61.42 286.86,54.00
             288.33,50.74 291.37,43.80 295.97,45.40
             300.10,46.83 302.09,53.24 303.33,57.00
             305.69,64.15 307.24,71.59 308.58,79.00
             308.58,79.00 311.00,92.00 311.00,92.00 Z
           M 10.93,80.00
           C 22.67,84.94 27.10,91.81 43.00,92.00
             66.47,92.27 79.46,82.76 97.00,68.39
             112.78,55.46 124.24,42.97 146.00,43.00
             157.26,43.01 173.26,46.83 180.59,56.04
             183.85,60.14 185.90,67.88 187.12,73.00
             190.25,86.22 189.01,88.47 189.00,101.00
             178.77,98.61 176.24,96.34 164.00,95.17
             153.51,94.17 135.97,98.08 126.00,101.69
             104.78,109.40 78.07,127.25 56.00,127.00
             42.70,126.84 29.24,117.99 20.01,108.96
             17.28,106.28 12.17,100.55 10.93,97.00
             10.05,94.80 11.00,83.53 10.93,80.00 Z
           M 581.00,88.00
           C 589.31,85.74 599.03,79.71 598.92,70.00
             598.89,68.07 598.61,66.14 597.26,64.65
             593.36,60.32 581.89,62.39 580.31,68.10
             580.31,68.10 581.00,88.00 581.00,88.00 Z
           M 513.02,68.49
           C 501.54,72.95 503.18,97.01 505.29,107.00
             506.24,111.52 508.98,120.16 514.99,119.42
             520.00,118.81 522.10,112.17 522.83,108.00
             524.42,100.17 524.67,85.69 522.83,78.00
             521.39,72.47 519.20,68.46 513.02,68.49 Z
           M 33.00,153.00
           C 33.00,153.00 42.00,153.00 42.00,153.00
             60.08,152.97 83.78,145.59 100.00,137.74
             116.46,129.78 141.06,113.45 159.00,113.01
             168.53,112.78 174.80,114.83 179.18,124.00
             180.46,126.68 181.16,129.01 180.60,132.00
             179.51,137.76 170.83,149.53 166.83,154.00
             138.07,186.15 86.95,192.81 51.00,169.00
             44.26,164.53 37.74,159.62 33.00,153.00 Z" />
</svg>
